<?xml version="1.0" encoding="utf-8"?>
<!-- Generator: Adobe Illustrator 24.1.3, SVG Export Plug-In . SVG Version: 6.00 Build 0)  -->
<svg version="1.1" id="Layer_1" focusable="false" xmlns="http://www.w3.org/2000/svg" xmlns:xlink="http://www.w3.org/1999/xlink"
	 x="0px" y="0px" viewBox="0 0 448 512" style="enable-background:new 0 0 448 512;" xml:space="preserve">
<style type="text/css">
	.st0{fill:#7FA646;}
	.st1{opacity:0.5;fill:#F2F2F2;}
</style>
<path class="st0" d="M350.9,129c26,4.7,47.3,18.7,63.9,42c14.6,20.7,24.6,46.7,30,78c4.7,28.7,4.3,57.3-1,86c-8,47.3-24,87-47.9,119
	c-28.6,38.7-64.6,58-107.9,58c-10.7,0-22.3-3.3-35-10c-8.7-5.3-18.3-8-29-8s-20.3,2.7-29,8c-12.7,6.7-24.3,10-35,10
	c-43.3,0-79.2-19.3-107.9-58c-24-32-40-71.7-47.9-119c-5.3-28.7-5.7-57.3-1-86c5.3-31.3,15.3-57.3,30-78c16.6-23.3,38-37.3,63.9-42
	c16-2.7,37.9-0.3,65.9,7c24,6.7,44.3,14.7,60.9,24c16.6-9.3,37-17.3,60.9-24C312.9,128.7,334.9,126.3,350.9,129z M295.9,88
	c-9.3,8.7-21.6,15-37,19c-10.7,3.3-22.3,5-35,5l-15-1c-1.3-9.3-1.3-20,0-32c2.7-24,10.3-42.3,23-55c9.3-8.7,21.6-15,37-19
	c10.7-3.3,22.3-5,35-5l15,1l1,15c0,12.7-1.7,24.3-5,35C310.9,66.3,304.6,78.7,295.9,88L295.9,88z"/>
<path class="st1" d="M209.6,409.4l-21.4-6.2c-2.2-0.6-3.5-3-2.9-5.2l47.8-164.6c0.6-2.2,3-3.5,5.2-2.9l21.4,6.2
	c2.2,0.6,3.5,3,2.9,5.2l-47.8,164.6C214.2,408.8,211.8,410.1,209.6,409.4z M169.7,370.1l15.2-16.2c1.6-1.7,1.5-4.4-0.3-6L152.9,320
	l31.7-27.9c1.8-1.6,1.9-4.3,0.3-6l-15.2-16.2c-1.6-1.7-4.2-1.8-6-0.2l-50.4,47.3c-1.8,1.6-1.8,4.5,0,6.1l50.4,47.3
	C165.5,371.9,168.1,371.8,169.7,370.1L169.7,370.1z M284.2,370.3l50.4-47.3c1.8-1.6,1.8-4.5,0-6.1l-50.4-47.3
	c-1.7-1.6-4.3-1.5-6,0.2L263.1,286c-1.6,1.7-1.5,4.4,0.3,6l31.7,27.9l-31.7,27.9c-1.8,1.6-1.9,4.3-0.3,6l15.2,16.2
	C279.9,371.8,282.5,371.9,284.2,370.3L284.2,370.3z"/>
</svg>
